<svg width="24" height="24" viewBox="0 0 24 24" fill="none" xmlns="http://www.w3.org/2000/svg">
    <path d="M20.4578 4.51555C19.9691 4.03508 19.3889 3.65393 18.7503 3.39389C18.1117 3.13384 17.4272 3 16.7359 3C16.0446 3 15.3601 3.13384 14.7215 3.39389C14.0829 3.65393 13.5026 4.03508 13.0139 4.51555L11.9997 5.51224L10.9855 4.51555C9.99842 3.54548 8.6596 3.0005 7.26361 3.0005C5.86761 3.0005 4.52879 3.54548 3.54168 4.51555C2.55456 5.48562 2 6.80132 2 8.17321C2 9.54509 2.55456 10.8608 3.54168 11.8309L4.55588 12.8275L11.9997 20.1429L19.4436 12.8275L20.4578 11.8309C20.9467 11.3506 21.3346 10.7804 21.5992 10.1528C21.8638 9.52522 22 8.85254 22 8.17321C22 7.49387 21.8638 6.82119 21.5992 6.1936C21.3346 5.56601 20.9467 4.9958 20.4578 4.51555Z"
          fill="currentColor" stroke="#C4C4C4" stroke-linecap="round" stroke-linejoin="round"/>
</svg>
